<svg id="Camada_1" data-name="Camada 1" xmlns="http://www.w3.org/2000/svg" viewBox="0 0 318.79 76.5"><title>logo</title><path d="M69.85,40.36H59.22L68.9.94H79.54l-.48,2C81.71,1.68,84.72.62,86.89.62h1.17c7.09,0,10.16,2,8.25,9.69l-3,12.22c-1.91,7.67-5.93,9.68-13,9.68H79.11a13.79,13.79,0,0,1-6.66-2.27Zm4.34-17.57a31.29,31.29,0,0,0,5.24.85h.74a2.43,2.43,0,0,0,2.7-2l2.59-10.53c.37-1.37-.26-2-1.69-2H83a40.7,40.7,0,0,0-5.71.85Z" style="fill:#fff"/><path d="M120.81.62c7.36,0,10.59,1.85,8.68,9.69L124.15,31.9H113.51l.48-2c-2.65,1.21-5.67,2.27-7.84,2.27h-1.21c-7.09,0-10.85.53-8.26-9.68l.69-2.7c2-7.88,5.56-8.25,12.65-8.25h1.64a20.17,20.17,0,0,1,6.56,1.05l.42-1.74c.48-2.07-.16-2.65-2.38-2.65H103.4L105,1.57A130.8,130.8,0,0,1,120.81.62Zm-9.15,17.31h-1.17a2.2,2.2,0,0,0-2.54,2L107.16,23c-.32,1.37.21,1.95,1.64,1.95h.9a49.89,49.89,0,0,0,5.72-.84l1.37-5.67A38.24,38.24,0,0,0,111.66,17.93Z" style="fill:#fff"/><path d="M158,31.9H147.32l.48-2c-2.65,1.21-5.71,2.27-7.88,2.27H138.8c-7.09,0-10.21-2-8.3-9.68L135.79.94h10.74L141.4,21.68c-.32,1.38.21,2,1.64,2h.74a40,40,0,0,0,5.77-.85L154.89.94h10.64Z" style="fill:#fff"/><path d="M193.94,8.56H179.66c-.8,0-1.17,0-1.33.58l-.16.64c-.21.74.37.79.64.84l5.61,1.06c6.61,1.17,10.16,1.48,8.31,8.79L192.36,22c-1.91,7.62-6.2,10.26-13.6,10.26a134.58,134.58,0,0,1-16.88-1.16l1.8-7.2h14.6c2.33,0,3.18-.16,3.49-1.37l.16-.69c.16-.64-.53-.8-4-1.48-2-.37-4.71-.8-6.46-1.17-3.7-.84-5.71-2.11-4.39-7.3l.64-2.49c2-7.62,5.76-8.73,13.12-8.73a146.17,146.17,0,0,1,14.87.69Z" style="fill:#fff"/><path d="M220.72,31A130.57,130.57,0,0,1,204,32.16c-7.36,0-10.53-1.91-8.57-9.74l2.85-11.64c1.33-5.34,6.14-9.89,13.55-9.89H219c7.35,0,9.95,4.55,8.62,9.89l-2.17,8.73c-.15.64-.15.74-.68.74H206.54l-.42,1.8c-.37,1.59,0,2,1.58,2h14.82Zm-3.07-19.58c.53-2.23-.26-2.91-2.17-2.91h-3.07c-1.9,0-3.12.63-3.7,2.91l-.74,3,9-.16Z" style="fill:#fff"/><path d="M161.39,66.54a103.44,103.44,0,0,1-15.61,1.16c-7.35,0-10.53-2.06-8.62-9.89L140.07,46c1.9-7.77,6.08-9.84,13.44-9.84,8.84,0,15.13.69,15.13.69l-1.85,7.67h-13.6a2.39,2.39,0,0,0-2.59,2L148,57.33c-.32,1.32.27,2,1.64,2h13.55Z" style="fill:#fff"/><path d="M200.13,46l-2.91,11.8c-1.91,7.83-6.09,10-13.5,10h-8.57c-7.35,0-10.48-2.17-8.57-10L169.49,46c1.9-7.78,6.14-10,13.49-10h8.58C199,36,202,38.17,200.13,46Zm-13.55,11.8,2.91-11.85c.37-1.38-.21-2-1.64-2h-5.08a2.47,2.47,0,0,0-2.64,2l-2.91,11.85c-.32,1.38.21,2.07,1.58,2.07h5.08A2.51,2.51,0,0,0,186.58,57.75Z" style="fill:#fff"/><path d="M227.12,28.33h10.69l-9.53,39.11H217.59l.48-2c-2.7,1.22-5.61,2.27-7.78,2.27h-1.17c-7.09,0-10.21-2-8.3-9.68l3.07-12.22c1.9-7.73,5.92-9.69,13-9.69h1.17a13.74,13.74,0,0,1,6.61,2.28Zm-7.31,30,3.13-12.75a32.17,32.17,0,0,0-5.24-.84h-.8a2.35,2.35,0,0,0-2.59,1.95l-2.59,10.53c-.37,1.38.21,2,1.59,2h.79A47.74,47.74,0,0,0,219.81,58.33Z" style="fill:#fff"/><path d="M243.36,67.44H232.73l7.56-31h10.64ZM249,22.83a4.17,4.17,0,0,1,4.4,4.28c0,3.5-3.5,6.41-7,6.41A4.22,4.22,0,0,1,242,29.18C242,25.63,245.53,22.83,249,22.83Z" style="fill:#fff"/><path d="M255.37,36.48H266l-.42,1.9c2.59-1.16,5.61-2.22,7.78-2.22h1.11c7.09,0,10.1,2,8.25,9.63l-5.29,21.65H266.8l5.08-20.8c.32-1.32-.21-2-1.64-2h-.74a42.22,42.22,0,0,0-5.71.9l-5.35,21.86H247.81Z" style="fill:#fff"/><path d="M311.2,66.48c-1.9,7.84-6,9.74-13.44,9.74a79.79,79.79,0,0,1-15.19-1.38l1.7-6.72H298a2.39,2.39,0,0,0,2.6-2.06l.79-3.17c-2.59,1.16-5.08,2.22-7.25,2.22h-1.64c-7.09,0-10.21-2-8.31-9.63l2.38-9.63c1.91-7.73,6-9.69,13.07-9.69h1.17a13.74,13.74,0,0,1,6.61,2.28l.48-2h10.64ZM294.8,55.85c-.32,1.37.26,2,1.64,2h.79a39.91,39.91,0,0,0,5.61-.85l2.86-11.38a32.17,32.17,0,0,0-5.24-.84h-.8a2.32,2.32,0,0,0-2.59,1.95Z" style="fill:#fff"/><path d="M18.62,0H34L17.64,67.75H2.29Z" style="fill:#fff"/><path d="M42.72,0H58L47.23,44.83H32Z" style="fill:#fff"/><ellipse cx="247.57" cy="27.57" rx="7.11" ry="6.18" transform="translate(182.15 267.93) rotate(-81.13)" style="fill:#4cd62b"/></svg>